Coordinates
version=1
nRows=21
nColumns=27
inDegrees=yes

Units are S.I. units (second, meters, Newtons, ...)
If the header above contains a line with 'inDegrees', this indicates whether rotational values are in degrees (yes) or radians (no).

endheader
time	pelvis_rotation	pelvis_tilt	pelvis_list	pelvis_tx	pelvis_ty	pelvis_tz	hip_flexion_r	hip_adduction_r	hip_rotation_r	knee_angle_r	knee_rotation_r	knee_adduction_r	knee_angle_r_beta	ankle_angle_r	subtalar_angle_r	mtp_angle_r	hip_flexion_l	hip_adduction_l	hip_rotation_l	knee_angle_l	knee_rotation_l	knee_adduction_l	knee_angle_l_beta	ankle_angle_l	subtalar_angle_l	mtp_angle_l
      4.19000000	      4.48438740	    -31.37358168	      5.72183428	     -0.01763463	      0.63032003	     -1.14287319	     97.43031227	    -47.21168382	     -7.48192308	     80.52376406	     -9.01147423	      9.82824813	      1.40540481	     13.52689489	     17.05333340	      0.00000000	     89.78074955	    -39.63391168	    -14.11935264	     73.44897996	     -6.13818926	     -9.81198336	      1.28192653	      8.35209762	     27.42970791	      0.00000000
      4.19500000	      4.49205649	    -31.30290953	      5.77695571	     -0.01766390	      0.62871435	     -1.14282337	     97.76378007	    -47.28104802	     -7.22819397	     80.82634904	     -9.07865980	      9.82948672	      1.41068591	     13.59113759	     17.02850916	      0.00000000	     89.93315578	    -39.73677513	    -14.15997283	     73.70898346	     -6.28646336	     -9.81361837	      1.28646445	      8.40287837	     27.67435293	      0.00000000
      4.20000000	      4.46091967	    -31.31017612	      5.70494404	     -0.01769156	      0.62706390	     -1.14278736	     98.00896560	    -47.31152197	     -7.11413197	     81.10377062	     -9.12055911	      9.83110633	      1.41552783	     13.72106885	     17.10743801	      0.00000000	     90.29779852	    -39.89994467	    -14.02278158	     74.02443088	     -6.41000738	     -9.81584733	      1.29197005	      8.46838053	     27.82503948	      0.00000000
      4.20500000	      4.46873703	    -31.32155204	      5.72657795	     -0.01781256	      0.62554237	     -1.14275597	     98.35548018	    -47.35484024	     -6.88806470	     81.37027511	     -9.16804902	      9.83194971	      1.42017921	     13.78003292	     17.15145527	      0.00000000	     90.56840031	    -39.98832231	    -14.01051195	     74.28186554	     -6.55877370	     -9.81658058	      1.29646313	      8.51383836	     27.97343346	      0.00000000
      4.21000000	      4.49591545	    -31.36809262	      5.50516202	     -0.01793425	      0.62404724	     -1.14267177	     98.39798740	    -47.45023668	     -7.10416944	     81.59443362	     -9.22301578	      9.83363009	      1.42409152	     13.84288532	     17.13341612	      0.00000000	     91.15965409	    -40.06192727	    -13.56179374	     74.58805579	     -6.65232661	     -9.81851819	      1.30180716	      8.52809240	     28.07942799	      0.00000000
      4.21500000	      4.44258096	    -31.27642187	      5.81189294	     -0.01792987	      0.62241947	     -1.14266369	     99.07274768	    -47.40483960	     -6.31956247	     81.94192969	     -9.24348394	      9.83415112	      1.43015647	     13.93477033	     17.13460854	      0.00000000	     90.97578917	    -40.24059825	    -14.07334435	     74.80644226	     -6.82522419	     -9.82020220	      1.30561872	      8.61883367	     28.30159579	      0.00000000
      4.22000000	      4.33828879	    -31.26308053	      5.87671334	     -0.01795082	      0.62088346	     -1.14258203	     99.49411734	    -47.31512030	     -5.93781984	     82.22765032	     -9.27736270	      9.83523367	      1.43514323	     14.01160013	     17.12730251	      0.00000000	     91.10207576	    -40.46957593	    -14.22718466	     75.06363418	     -6.97115267	     -9.82288494	      1.31010757	      8.68056964	     28.51561001	      0.00000000
      4.22500000	      4.43511295	    -31.30205290	      5.71523212	     -0.01805485	      0.61937866	     -1.14249845	     99.58630433	    -47.48036161	     -6.08471222	     82.46675947	     -9.32164060	      9.83660749	      1.43931648	     14.09909805	     17.12827856	      0.00000000	     91.66051984	    -40.46675517	    -13.80813512	     75.34941438	     -7.06181648	     -9.82317967	      1.31509537	      8.68913202	     28.59177367	      0.00000000
      4.23000000	      4.47572632	    -31.26733084	      5.88690039	     -0.01804932	      0.61781145	     -1.14247033	    100.09125693	    -47.54747216	     -5.59946227	     82.78038135	     -9.34559888	      9.83727430	      1.44479021	     14.16390022	     17.17114335	      0.00000000	     91.73522027	    -40.54670149	    -14.00092691	     75.58994433	     -7.19772962	     -9.82438909	      1.31929341	      8.76445233	     28.76578354	      0.00000000
      4.23500000	      4.47196820	    -31.33021833	      5.71581843	     -0.01815767	      0.61635964	     -1.14235494	    100.21846573	    -47.58989837	     -5.69424385	     83.00975272	     -9.38084342	      9.83842088	      1.44879350	     14.23907432	     17.13330114	      0.00000000	     92.25840274	    -40.64866490	    -13.64115471	     75.86648985	     -7.28043789	     -9.82569244	      1.32412004	      8.79011251	     28.89220492	      0.00000000
      4.24000000	      4.51681882	    -31.29229322	      5.86379486	     -0.01815669	      0.61476019	     -1.14230663	    100.69611802	    -47.66184540	     -5.24347006	     83.32547213	     -9.40539793	      9.83907906	      1.45430384	     14.34315543	     17.19771823	      0.00000000	     92.36514143	    -40.72122730	    -13.77905212	     76.11450784	     -7.40923641	     -9.82698061	      1.32844877	      8.84211967	     29.01640365	      0.00000000
      4.24500000	      4.51468861	    -31.29650872	      5.87389634	     -0.01819306	      0.61323741	     -1.14222939	    101.02161341	    -47.69129463	     -5.01879861	     83.59662671	     -9.43096689	      9.83988704	      1.45903638	     14.41640101	     17.18687990	      0.00000000	     92.63033008	    -40.83245049	    -13.72240210	     76.37105877	     -7.51903412	     -9.82833579	      1.33292643	      8.90938067	     29.17248095	      0.00000000
      4.25000000	      4.52117323	    -31.32947789	      5.85296803	     -0.01825139	      0.61165427	     -1.14213703	    101.34963177	    -47.72680029	     -4.82609613	     83.88167882	     -9.45506572	      9.84096251	      1.46401148	     14.52140309	     17.18807486	      0.00000000	     92.98413896	    -40.93937717	    -13.58760503	     76.64555535	     -7.61490247	     -9.82939555	      1.33771730	      8.93836228	     29.30874182	      0.00000000
      4.25500000	      4.52766275	    -31.32720898	      5.86254373	     -0.01829008	      0.61009493	     -1.14204734	    101.67704150	    -47.76588056	     -4.59588997	     84.16096266	     -9.47811740	      9.84187408	      1.46888590	     14.58889944	     17.16735629	      0.00000000	     93.25827071	    -41.03727472	    -13.50978164	     76.90495600	     -7.72360670	     -9.83066180	      1.34224469	      8.97634535	     29.43760843	      0.00000000
      4.26000000	      4.44845882	    -31.27883127	      6.09119537	     -0.01825430	      0.60848070	     -1.14199253	    102.27981741	    -47.66726734	     -3.94129823	     84.48108412	     -9.49206553	      9.84269690	      1.47447307	     14.66624177	     17.10349040	      0.00000000	     93.18924312	    -41.26205160	    -13.88998138	     77.13916745	     -7.86939837	     -9.83249752	      1.34633245	      9.05714321	     29.64897738	      0.00000000
      4.26500000	      4.02943344	    -31.62838319	      5.67715895	     -0.01924198	      0.60646369	     -1.14169544	    102.65620145	    -47.15011194	     -3.67013159	     84.76744726	     -9.14377299	      9.70407699	      1.47947105	     14.71049398	     16.83442260	      0.00000000	     94.17730020	    -41.75524826	    -12.78527721	     77.55432764	     -7.39983142	     -9.68759621	      1.35357837	      9.08257194	     29.53267731	      0.00000000
      4.27000000	      4.50189599	    -31.25215942	      6.13787866	     -0.01830920	      0.60521574	     -1.14183865	    102.95949405	    -47.78649443	     -3.42860661	     85.06066757	     -9.53200409	      9.84453586	      1.48458871	     14.84190550	     17.11295224	      0.00000000	     93.73050476	    -41.41439570	    -13.70651566	     77.67305522	     -8.06951070	     -9.83420047	      1.35565055	      9.16381635	     29.89388832	      0.00000000
      4.27500000	      4.50971704	    -31.27558424	      6.03099556	     -0.01839398	      0.60354333	     -1.14174521	    103.17522488	    -47.84440397	     -3.36805543	     85.33498419	     -9.55348996	      9.84545923	      1.48937644	     14.95988034	     17.12782237	      0.00000000	     94.19057563	    -41.48839051	    -13.38066514	     77.96999405	     -8.15152576	     -9.83548523	      1.36083311	      9.20611149	     29.99711960	      0.00000000
      4.28000000	      4.50475005	    -31.26268324	      6.07262990	     -0.01840196	      0.60178765	     -1.14167969	    103.57278484	    -47.86449178	     -3.04061446	     85.64726156	     -9.57021369	      9.84638704	      1.49482671	     15.04905546	     17.11357834	      0.00000000	     94.44509822	    -41.60190536	    -13.31999050	     78.25680974	     -8.25183653	     -9.83659448	      1.36583899	      9.27159132	     30.11087537	      0.00000000
      4.28500000	      4.39996919	    -31.22987868	      6.12702589	     -0.01834782	      0.60010055	     -1.14157757	    103.96962306	    -47.76872198	     -2.67317978	     85.95005407	     -9.58497906	      9.84738740	      1.50011144	     15.17759685	     17.04061775	      0.00000000	     94.59303454	    -41.84235213	    -13.40726103	     78.53605420	     -8.37715252	     -9.83872351	      1.37071273	      9.36120784	     30.24280634	      0.00000000
      4.29000000	      4.46562081	    -31.16782691	      6.28090214	     -0.01839899	      0.59830375	     -1.14153074	    104.46351952	    -47.83262393	     -2.16763357	     86.28456606	     -9.59798689	      9.84795163	      1.50594977	     15.25176079	     17.06313147	      0.00000000	     94.70834618	    -41.86879467	    -13.45206525	     78.78769427	     -8.47527554	     -9.83924418	      1.37510468	      9.41992123	     30.37221650	      0.00000000
